<?xml version="1.0" encoding="UTF-8"?>
<svg id="_レイヤー_2" data-name="レイヤー 2" xmlns="http://www.w3.org/2000/svg" viewBox="0 0 110.14 8.76">
  <defs>
    <style>
      .cls-1 {
        fill: #231815;
        stroke-width: 0px;
      }
    </style>
  </defs>
  <g id="_レイヤー_1-2" data-name="レイヤー 1">
    <g>
      <g>
        <path class="cls-1" d="M.9.12v6.47c0,.35.08.64.25.85.17.22.42.32.76.32s.59-.11.76-.32c.17-.22.25-.5.25-.85V.12h.9v6.28c0,.45-.06.82-.17,1.1-.12.29-.27.52-.46.68s-.39.29-.62.35c-.22.07-.44.1-.66.1s-.44-.03-.66-.1-.43-.19-.62-.35-.34-.4-.46-.68c-.12-.29-.17-.66-.17-1.1V.12h.9Z"/>
        <path class="cls-1" d="M6.65.12c.15,0,.31,0,.48.02.17.01.33.04.5.08.16.04.32.11.47.2.15.09.28.21.4.35.11.15.2.33.27.55.07.22.1.48.1.79v.66c0,.23-.02.44-.07.64-.05.19-.12.36-.22.52-.1.15-.22.28-.36.38s-.31.19-.5.25l1.34,3.96h-.94l-1.24-3.78h-1.02v3.78h-.9V.12h1.68ZM5.87,3.96h.89c.17,0,.32-.02.47-.07.14-.05.27-.12.38-.22.11-.1.2-.21.26-.35.06-.14.1-.3.1-.49v-.79c0-.26-.04-.47-.13-.62-.09-.15-.2-.26-.32-.34s-.27-.13-.41-.15-.28-.03-.39-.03h-.84v3.06Z"/>
        <path class="cls-1" d="M10.08.12h1.7c.16,0,.32.01.47.04.15.02.3.06.43.11.14.05.26.11.38.19.12.08.23.16.32.26.07.07.14.15.19.25.06.09.11.19.15.29.04.1.08.22.1.34s.03.25.03.38v.53c0,.18-.02.36-.05.53-.03.17-.09.32-.18.46-.09.14-.2.26-.33.37-.13.11-.3.21-.5.29.14.05.26.1.36.16.1.06.2.13.28.2.1.1.17.2.23.31.06.11.1.22.13.34.03.12.05.23.05.34,0,.11.01.22.01.31v.66c0,.08,0,.18,0,.29s-.02.23-.05.37c-.03.13-.07.27-.13.41s-.14.27-.25.39c-.15.18-.36.32-.61.44-.26.12-.6.17-1.02.17h-1.72V.12ZM10.98,3.74h.7c.26,0,.48-.04.65-.12s.3-.18.4-.31c.09-.11.15-.24.19-.38.04-.14.05-.29.05-.43v-.54c0-.14-.02-.27-.07-.39s-.12-.23-.22-.33c-.1-.1-.23-.19-.38-.25-.15-.06-.34-.09-.55-.09h-.76v2.84ZM10.98,7.74h.73c.1,0,.2,0,.29-.02.09-.02.18-.04.26-.08.08-.04.15-.08.22-.13.07-.05.13-.11.19-.19.05-.06.09-.13.13-.2.04-.07.07-.15.09-.23s.04-.17.05-.27c.01-.1.02-.2.02-.31v-.6c0-.14-.02-.27-.07-.41s-.11-.27-.21-.38c-.09-.11-.21-.2-.36-.28-.15-.07-.33-.11-.54-.11h-.8v3.22Z"/>
        <path class="cls-1" d="M18.12,8.52l-.42-1.87h-1.9l-.41,1.87h-.88L16.34.12h.82l1.84,8.4h-.88ZM16.73,1.92l-.8,3.96h1.64l-.84-3.96Z"/>
        <path class="cls-1" d="M20.89.12l2.38,6.25V.12h.9v8.4h-.9l-2.38-6.13v6.13h-.9V.12h.9Z"/>
      </g>
      <g>
        <path class="cls-1" d="M27.11.12h1.7c.16,0,.32.01.47.04.15.02.3.06.43.11.14.05.26.11.38.19.12.08.23.16.32.26.07.07.14.15.19.25.06.09.11.19.15.29.04.1.08.22.1.34s.03.25.03.38v.53c0,.18-.02.36-.05.53-.03.17-.09.32-.18.46-.09.14-.2.26-.33.37-.13.11-.3.21-.5.29.14.05.26.1.36.16.1.06.2.13.28.2.1.1.17.2.23.31.06.11.1.22.13.34.03.12.05.23.05.34,0,.11.01.22.01.31v.66c0,.08,0,.18,0,.29s-.02.23-.05.37c-.03.13-.07.27-.13.41s-.14.27-.25.39c-.15.18-.36.32-.61.44-.26.12-.6.17-1.02.17h-1.72V.12ZM28.01,3.74h.7c.26,0,.48-.04.65-.12s.3-.18.4-.31c.09-.11.15-.24.19-.38.04-.14.05-.29.05-.43v-.54c0-.14-.02-.27-.07-.39s-.12-.23-.22-.33c-.1-.1-.23-.19-.38-.25-.15-.06-.34-.09-.55-.09h-.76v2.84ZM28.01,7.74h.73c.1,0,.2,0,.29-.02.09-.02.18-.04.26-.08.08-.04.15-.08.22-.13.07-.05.13-.11.19-.19.05-.06.09-.13.13-.2.04-.07.07-.15.09-.23s.04-.17.05-.27c.01-.1.02-.2.02-.31v-.6c0-.14-.02-.27-.07-.41s-.11-.27-.21-.38c-.09-.11-.21-.2-.36-.28-.15-.07-.33-.11-.54-.11h-.8v3.22Z"/>
        <path class="cls-1" d="M33.08.12v7.57h2.65v.83h-3.55V.12h.9Z"/>
        <path class="cls-1" d="M37.4.12v6.47c0,.35.08.64.25.85.17.22.42.32.76.32s.59-.11.76-.32c.17-.22.25-.5.25-.85V.12h.9v6.28c0,.45-.06.82-.17,1.1-.12.29-.27.52-.46.68s-.39.29-.62.35c-.22.07-.44.1-.66.1s-.44-.03-.66-.1-.43-.19-.62-.35-.34-.4-.46-.68c-.12-.29-.17-.66-.17-1.1V.12h.9Z"/>
        <path class="cls-1" d="M41.47.12h3.37v.83h-2.47v2.93h2.18v.78h-2.18v3.04h2.51v.83h-3.41V.12Z"/>
        <path class="cls-1" d="M48.68,2.14c0-.11-.01-.25-.04-.43-.03-.17-.1-.33-.21-.49-.07-.09-.17-.17-.29-.24-.12-.07-.29-.11-.51-.11-.11,0-.23.02-.37.05-.13.04-.25.11-.37.22-.14.15-.23.32-.26.5-.03.18-.05.36-.05.52,0,.13,0,.29.03.48.02.19.08.37.19.53.09.12.19.22.32.29.12.07.24.13.34.17l.77.28c.18.06.36.15.56.26.2.11.37.26.5.45.15.21.25.43.28.65.04.23.05.47.05.74v.3c0,.42-.05.77-.16,1.07-.1.3-.24.54-.4.73-.15.16-.36.29-.61.38-.26.1-.55.14-.89.14-.42,0-.76-.06-1.02-.19-.26-.13-.46-.28-.6-.47-.09-.12-.16-.25-.2-.4-.05-.15-.08-.29-.11-.43-.02-.14-.04-.26-.04-.37,0-.1,0-.17,0-.19v-.3h.9v.24c0,.11.01.25.04.43.03.17.09.33.2.46.14.16.28.26.44.29.16.04.29.05.39.05.28,0,.49-.04.62-.13s.24-.17.3-.25c.11-.14.18-.31.2-.49.02-.18.04-.34.04-.49v-.32c0-.16-.01-.33-.04-.52s-.09-.35-.2-.47c-.1-.14-.23-.24-.37-.31-.14-.07-.25-.12-.32-.14l-.91-.32c-.2-.07-.4-.17-.59-.31-.19-.13-.34-.33-.46-.59-.08-.18-.13-.38-.14-.58-.02-.2-.02-.4-.02-.61v-.25c0-.34.06-.63.17-.88.11-.25.26-.46.43-.62.18-.18.39-.31.63-.38.24-.07.49-.1.75-.1.29,0,.55.05.79.14.24.09.44.23.61.4.17.18.3.39.39.65.09.26.14.56.14.89v.29h-.9v-.24Z"/>
      </g>
      <g>
        <path class="cls-1" d="M55.12,7.97c-.06.11-.14.21-.22.29s-.17.16-.27.22c-.08.05-.16.09-.25.13-.09.04-.17.07-.26.09s-.17.04-.25.05-.16.01-.23.01c-.26,0-.5-.03-.74-.1-.24-.07-.45-.22-.63-.45-.09-.11-.16-.23-.22-.36s-.1-.25-.13-.38c-.03-.12-.05-.25-.06-.37-.01-.12-.02-.22-.02-.31V2.36c0-.26.02-.51.05-.76.04-.25.15-.5.33-.74.11-.16.24-.29.38-.38.14-.1.29-.17.44-.23.15-.06.29-.09.43-.11.14-.02.26-.02.37-.02.3,0,.58.04.82.11.24.08.46.19.64.35.18.17.31.38.41.62.1.25.14.55.14.9v.38h-.9v-.37c0-.09-.01-.2-.04-.32s-.07-.25-.14-.37c-.08-.12-.19-.22-.34-.31s-.34-.13-.59-.13c-.22,0-.39.04-.53.11-.14.07-.24.17-.32.29-.11.15-.18.32-.22.5-.03.18-.05.35-.05.5v4.1c0,.22.02.41.06.58s.1.31.18.43c.09.12.2.21.34.28.14.06.31.1.51.1s.37-.04.52-.11c.14-.08.26-.18.35-.32.1-.14.16-.3.2-.49s.06-.4.06-.63v-1.34h-1.07v-.78h1.97v4.43h-.52l-.24-.67Z"/>
        <path class="cls-1" d="M57.21.24h3.37v.83h-2.47v2.93h2.18v.78h-2.18v3.04h2.51v.83h-3.41V.24Z"/>
        <path class="cls-1" d="M62.69.24l2.38,6.25V.24h.9v8.4h-.9l-2.38-6.13v6.13h-.9V.24h.9Z"/>
        <path class="cls-1" d="M67.36.24h3.37v.83h-2.47v2.93h2.18v.78h-2.18v3.04h2.51v.83h-3.41V.24Z"/>
        <path class="cls-1" d="M73.62.24c.15,0,.31,0,.48.02.17.01.33.04.5.08.16.04.32.11.47.2.15.09.28.21.4.35.11.15.2.33.27.55.07.22.1.48.1.79v.66c0,.23-.02.44-.07.64-.05.19-.12.36-.22.52-.1.15-.22.28-.36.38s-.31.19-.5.25l1.34,3.96h-.94l-1.24-3.78h-1.02v3.78h-.9V.24h1.68ZM72.84,4.08h.89c.17,0,.32-.02.47-.07.14-.05.27-.12.38-.22.11-.1.2-.21.26-.35.06-.14.1-.3.1-.49v-.79c0-.26-.04-.47-.13-.62-.09-.15-.2-.26-.32-.34s-.27-.13-.41-.15-.28-.03-.39-.03h-.84v3.06Z"/>
        <path class="cls-1" d="M80.32,8.64l-.42-1.87h-1.9l-.41,1.87h-.88l1.82-8.4h.82l1.84,8.4h-.88ZM78.93,2.04l-.8,3.96h1.64l-.84-3.96Z"/>
        <path class="cls-1" d="M82.85.24v7.57h2.65v.83h-3.55V.24h.9Z"/>
      </g>
      <g>
        <path class="cls-1" d="M90.55,2.26c0-.11-.01-.25-.04-.43-.03-.17-.1-.33-.21-.49-.07-.09-.17-.17-.29-.24-.12-.07-.29-.11-.51-.11-.11,0-.23.02-.37.05-.13.04-.25.11-.37.22-.14.15-.23.32-.26.5-.03.18-.05.36-.05.52,0,.13,0,.29.03.48.02.19.08.37.19.53.09.12.19.22.32.29.12.07.24.13.34.17l.77.28c.18.06.36.15.56.26.2.11.37.26.5.45.15.21.25.43.28.65.04.23.05.47.05.74v.3c0,.42-.05.77-.16,1.07-.1.3-.24.54-.4.73-.15.16-.36.29-.61.38-.26.1-.55.14-.89.14-.42,0-.76-.06-1.02-.19-.26-.13-.46-.28-.6-.47-.09-.12-.16-.25-.2-.4-.05-.15-.08-.29-.11-.43-.02-.14-.04-.26-.04-.37,0-.1,0-.17,0-.19v-.3h.9v.24c0,.11.01.25.04.43.03.17.09.33.2.46.14.16.28.26.44.29.16.04.29.05.39.05.28,0,.49-.04.62-.13s.24-.17.3-.25c.11-.14.18-.31.2-.49.02-.18.04-.34.04-.49v-.32c0-.16-.01-.33-.04-.52s-.09-.35-.2-.47c-.1-.14-.23-.24-.37-.31-.14-.07-.25-.12-.32-.14l-.91-.32c-.2-.07-.4-.17-.59-.31-.19-.13-.34-.33-.46-.59-.08-.18-.13-.38-.14-.58-.02-.2-.02-.4-.02-.61v-.25c0-.34.06-.63.17-.88.11-.25.26-.46.43-.62.18-.18.39-.31.63-.38.24-.07.49-.1.75-.1.29,0,.55.05.79.14.24.09.44.23.61.4.17.18.3.39.39.65.09.26.14.56.14.89v.29h-.9v-.24Z"/>
        <path class="cls-1" d="M95.98.24v.83h-1.56v7.57h-.9V1.07h-1.55V.24h4.01Z"/>
        <path class="cls-1" d="M97.71,8.63c-.24-.09-.44-.21-.61-.37-.14-.13-.24-.26-.32-.4-.08-.14-.14-.28-.18-.43s-.07-.29-.08-.45c-.01-.16-.02-.31-.02-.46V2.36c0-.16,0-.32.02-.47.01-.15.04-.3.08-.44s.1-.29.18-.43c.08-.14.19-.27.32-.4.17-.16.37-.28.61-.37.24-.09.51-.13.81-.13s.57.04.81.13c.24.09.44.21.61.37.14.13.24.26.32.4.08.14.14.28.18.43s.07.29.08.44c.01.15.02.31.02.47v4.15c0,.15,0,.31-.02.46-.01.16-.04.31-.08.45s-.1.29-.18.43c-.08.14-.19.27-.32.4-.17.16-.37.28-.61.37-.24.09-.51.13-.81.13s-.57-.04-.81-.13ZM98.99,7.8c.13-.06.24-.12.33-.2.14-.14.23-.29.26-.44.03-.15.05-.3.05-.45V2.17c0-.15-.02-.3-.05-.45-.03-.15-.12-.29-.26-.43-.09-.09-.2-.16-.33-.22-.13-.06-.29-.08-.47-.08s-.34.03-.47.08c-.13.06-.24.13-.33.22-.14.14-.23.28-.26.43-.03.15-.05.3-.05.45v4.54c0,.15.02.3.05.45.03.15.12.29.26.44.09.08.2.15.33.2.13.06.29.08.47.08s.34-.03.47-.08Z"/>
        <path class="cls-1" d="M103.3.24c.15,0,.31,0,.48.02.17.01.33.04.5.08.16.04.32.11.47.2.15.09.28.21.4.35.11.15.2.33.27.55.07.22.1.48.1.79v.66c0,.23-.02.44-.07.64-.05.19-.12.36-.22.52-.1.15-.22.28-.36.38s-.31.19-.5.25l1.34,3.96h-.94l-1.24-3.78h-1.02v3.78h-.9V.24h1.68ZM102.52,4.08h.89c.17,0,.32-.02.47-.07.14-.05.27-.12.38-.22.11-.1.2-.21.26-.35.06-.14.1-.3.1-.49v-.79c0-.26-.04-.47-.13-.62-.09-.15-.2-.26-.32-.34s-.27-.13-.41-.15-.28-.03-.39-.03h-.84v3.06Z"/>
        <path class="cls-1" d="M106.74.24h3.37v.83h-2.47v2.93h2.18v.78h-2.18v3.04h2.51v.83h-3.41V.24Z"/>
      </g>
    </g>
  </g>
</svg>