<svg width="103" height="65" viewBox="0 0 103 65" fill="none" xmlns="http://www.w3.org/2000/svg">
<path d="M1.6 2.04V0.559998H12.72V2.04H12C9.6 2.04 9.12 2.68 9.12 5.48V18.36C9.12 21.76 9.28 22.8 10 24.04C11.12 26.12 13.08 27.16 15.8 27.16C18.68 27.16 21 25.84 22.04 23.6C22.56 22.52 22.84 20.28 22.84 17.6V7.36C22.84 5.4 22.64 4.24 22.12 3.44C21.68 2.72 20.92 2.28 20 2.16L19.24 2.08V0.559998H28.12V2.08L27.4 2.16C25.4 2.44 24.52 3.92 24.52 7.24V17.6C24.52 20.96 24.12 23.2 23.32 24.72C21.84 27.44 19 28.84 14.96 28.84C11.44 28.84 8.72 27.76 7.08 25.76C5.84 24.28 5.2 22.2 5.2 19.56V5.48C5.2 2.64 4.76 2.04 2.36 2.04H1.6ZM33.9675 9.48V14.44C34.7275 13.28 35.2075 12.68 35.6075 12.24C37.0075 10.52 38.5275 9.68 40.0475 9.68C41.4075 9.68 42.3675 10.52 42.3675 11.76C42.3675 12.88 41.4875 13.8 40.4075 13.8C40.0475 13.8 39.7675 13.72 39.1675 13.36C38.5675 13.04 38.1675 12.92 37.8075 12.92C36.6875 12.92 35.9675 13.48 33.9675 16V24.08C33.9675 26.48 34.2475 26.8 36.7675 26.8H37.8875V28.2H27.8875V26.8H28.1675C30.4475 26.8 30.7675 26.44 30.7675 24.08V15.48C30.7675 13.08 30.4475 12.68 28.1275 12.44V11.32L33.9675 9.48ZM49.5384 26.16L47.4984 28.84L46.7384 28.64V6.24C46.7384 3.84 46.3784 3.44 44.0984 3.24V2.12L49.8984 0.279999V11.84C52.0584 10.16 53.1784 9.64 54.8584 9.64C58.9784 9.64 62.1384 13.72 62.1384 18.92C62.1384 24.36 58.8584 28.76 54.7384 28.76C52.8184 28.76 51.3384 28 49.5384 26.16ZM49.8984 13.56V24.68C51.1384 26.12 52.2584 26.72 53.8584 26.72C56.8984 26.72 58.5384 24.16 58.5384 19.48C58.5384 14.52 56.8984 11.8 53.9384 11.8C52.6184 11.8 51.3784 12.32 49.8984 13.56ZM81.675 26.04L82.475 26.8C81.395 28.08 80.235 28.72 79.115 28.72C77.875 28.72 77.195 28 76.715 26.24C74.315 28.12 72.875 28.76 71.035 28.76C68.315 28.76 66.275 26.88 66.275 24.32C66.275 21.84 68.395 19.68 72.115 18.28C73.235 17.84 74.595 17.44 76.595 16.96V14.6C76.595 12.16 75.795 11.16 73.875 11.16C72.395 11.16 71.515 11.84 70.955 13.44C70.435 14.84 69.755 15.52 68.755 15.52C67.835 15.52 66.995 14.68 66.995 13.68C66.995 11.48 70.115 9.68 73.995 9.68C76.355 9.68 78.235 10.4 79.075 11.68C79.635 12.48 79.755 13.08 79.755 15V24.2C79.755 26.36 79.835 26.64 80.555 26.64C80.955 26.64 81.195 26.52 81.675 26.04ZM76.595 24.96V18.32C71.915 19.84 69.835 21.6 69.835 24.12C69.835 25.72 70.835 26.8 72.315 26.8C73.755 26.8 75.075 26.24 76.595 24.96ZM89.7003 9.48V12.88C91.9403 10.64 93.7403 9.68 95.7403 9.68C97.4203 9.68 98.8603 10.52 99.7003 11.84C100.26 12.84 100.5 13.92 100.5 16V24.08C100.5 26.36 100.82 26.76 102.86 26.8V28.2H94.9403V26.8C96.9803 26.76 97.3003 26.4 97.3003 24.08V16.48C97.3003 15.12 97.1403 14.08 96.8603 13.48C96.3803 12.52 95.4603 12 94.3003 12C92.7403 12 91.4603 12.64 89.7003 14.36V24.08C89.7003 26.36 90.0203 26.76 92.0603 26.8V28.2H83.8603V26.8C86.2203 26.76 86.5403 26.48 86.5403 24.08V15.44C86.5403 13.08 86.1403 12.64 83.8603 12.44V11.32L89.7003 9.48ZM1.64 36.56H11.4C15.56 36.56 17.96 36.96 19.8 38C21.8 39.12 22.92 40.88 22.92 42.92C22.92 45.16 21.44 47.2 19.08 48.4C18.08 48.88 17.2 49.16 15.76 49.4C17.36 49.6 18 49.72 18.8 49.96C22.2 51 24.4 53.68 24.4 56.8C24.4 59.52 22.64 62.08 19.96 63.12C18.08 63.88 16.04 64.2 13.12 64.2H1.64V62.72H2.4C4.76 62.68 5.24 62.12 5.24 59.24V41.48C5.24 38.64 4.76 38.04 2.4 38.04H1.64V36.56ZM9.16 48.84H10.44C14.08 48.84 16.04 48.4 17.28 47.24C18.28 46.32 18.76 45 18.76 43.32C18.76 39.6 17 38 12.96 38C9.96 38 9.16 38.6 9.16 40.92V48.84ZM9.16 50.32V59.64C9.16 62.44 9.48 62.68 12.04 62.68C14.88 62.68 16.56 62.36 17.84 61.56C19.32 60.68 20.12 59 20.12 56.68C20.12 54.24 19.16 52.2 17.56 51.28C16.32 50.56 14.72 50.28 11.88 50.28C11 50.28 10.64 50.28 9.16 50.32ZM33.7263 36.28V60.08C33.7263 62.36 34.0463 62.76 36.0863 62.8V64.2H27.8863V62.8H28.0063C30.2063 62.8 30.5663 62.44 30.5663 60.08V42.24C30.5663 39.92 30.2063 39.52 27.8863 39.24V38.16L33.7263 36.28ZM51.9847 64.56V61.36C49.7047 63.84 48.0647 64.76 45.9447 64.76C44.2647 64.76 42.7047 64 41.9447 62.84C41.3447 61.84 41.1447 60.76 41.1447 57.56V51.52C41.1447 49.08 40.8247 48.68 38.5047 48.44V47.32L44.3047 45.48V57.56C44.3047 59.8 44.3847 60.2 44.7447 60.92C45.1847 61.8 46.1447 62.28 47.3047 62.28C48.8647 62.28 50.1447 61.64 51.9847 59.88V51.44C51.9847 49.08 51.6247 48.68 49.3047 48.44V47.32L55.1447 45.48V60.08C55.1447 62.52 55.4647 62.88 57.5447 62.92V64.2C56.0647 64.28 53.5447 64.44 51.9847 64.56ZM77.2691 54.36H64.2291C64.2291 55.76 64.3491 56.36 64.5891 57.4C65.2291 60.68 67.4291 62.56 70.5491 62.56C72.8291 62.56 74.6291 61.64 76.5491 59.64L77.4691 60.32C75.3091 63.24 72.5491 64.76 69.3491 64.76C64.3891 64.76 60.7091 60.92 60.7091 55.8C60.7091 50.36 64.7891 45.68 69.4691 45.68C71.9891 45.68 74.1491 46.84 75.5091 48.88C76.4691 50.32 77.1091 52.2 77.2691 54.36ZM64.4691 52.76H73.7091C73.5091 48.84 71.9491 46.96 69.3091 46.96C67.4691 46.96 66.0291 48 65.1891 49.84C64.8691 50.6 64.6291 51.44 64.4691 52.76ZM80.9006 58.64L81.9806 58.08C83.8606 61.2 86.8206 63.2 89.4206 63.2C91.3006 63.2 92.7006 61.92 92.7006 60.24C92.7006 59.28 92.2606 58.48 91.5006 57.92C90.9406 57.56 90.0206 57.24 88.3806 56.92C83.6606 55.84 81.5006 53.96 81.5006 50.88C81.5006 47.96 83.8206 45.64 86.7406 45.64C87.4206 45.64 88.0606 45.8 88.9006 46.08C89.6606 46.32 89.8606 46.4 90.2206 46.4C90.6206 46.4 91.0606 46.28 92.3006 45.68L94.4206 51.12L93.3406 51.76C92.8206 50.96 92.3406 50.32 91.7006 49.68C90.0606 48 88.4206 47.2 86.7806 47.2C84.9006 47.2 83.6606 48.24 83.6606 49.8C83.6606 51.44 84.9406 52.36 88.3406 53.08C90.9406 53.64 92.4206 54.24 93.4606 55.2C94.5806 56.24 95.1006 57.52 95.1006 59.08C95.1006 62.16 92.6206 64.76 89.6206 64.76C88.9806 64.76 88.3806 64.64 87.2606 64.28C86.3406 64.04 86.0206 63.96 85.5406 63.96C85.0206 63.96 84.7006 64.04 83.1806 64.76L80.9006 58.64Z" fill="#434343"/>
</svg>
