<?xml version="1.0" encoding="UTF-8"?>
<svg id="_レイヤー_2" data-name="レイヤー 2" xmlns="http://www.w3.org/2000/svg" viewBox="0 0 50.24 8.64">
  <defs>
    <style>
      .cls-1 {
        fill: #231815;
        stroke-width: 0px;
      }
    </style>
  </defs>
  <g id="_レイヤー_1-2" data-name="レイヤー 1">
    <g>
      <path class="cls-1" d="M1.2.12v6.37c0,.29.07.52.2.7.14.18.34.27.6.27s.46-.09.6-.27c.14-.18.2-.41.2-.7V.12h1.2v6.19c0,.46-.06.85-.19,1.15s-.28.54-.48.71c-.2.18-.41.3-.65.37-.24.07-.47.1-.69.1s-.45-.03-.69-.1c-.24-.07-.45-.19-.65-.37-.2-.18-.36-.41-.48-.71s-.19-.68-.19-1.15V.12h1.2Z"/>
      <path class="cls-1" d="M6.86.12c.15,0,.31.01.48.03.17.02.33.06.49.11s.31.13.46.23c.15.1.28.22.39.38.11.16.2.36.26.59.06.23.1.5.1.82v.6c0,.23-.03.44-.08.63-.05.19-.13.36-.22.5s-.21.27-.34.38c-.13.1-.28.19-.44.25l1.32,3.88h-1.25l-1.16-3.62h-.71v3.62h-1.2V.12h1.9ZM6.17,3.82h.68c.12,0,.24-.02.36-.05.12-.04.23-.09.32-.16.09-.07.17-.17.23-.28.06-.12.09-.25.09-.41v-.72c0-.18-.03-.34-.08-.46-.05-.12-.12-.23-.2-.31s-.18-.14-.28-.17c-.1-.03-.21-.05-.32-.05h-.79v2.62Z"/>
      <path class="cls-1" d="M10.07.12h1.62c.09,0,.2,0,.32.01.13,0,.26.03.41.05.14.03.29.07.44.12.15.05.29.13.41.22.17.11.3.24.4.4.1.15.18.31.23.46.05.16.09.31.11.45.02.14.03.27.03.37v.25c0,.28-.02.52-.06.73s-.14.4-.3.58c-.08.1-.16.17-.24.23s-.15.11-.22.15c.16.07.28.16.37.25.08.1.15.19.21.28.06.1.11.2.14.28.03.08.05.17.07.25.01.08.02.16.02.25,0,.08,0,.18,0,.28v.64c0,.09,0,.2-.01.35,0,.14-.03.3-.08.46-.04.16-.11.32-.21.49-.1.17-.24.32-.42.46-.14.1-.32.2-.55.28-.23.08-.52.12-.88.12h-1.82V.12ZM11.27,3.6h.58c.21,0,.37-.03.49-.1.12-.07.21-.14.28-.21.07-.09.13-.2.17-.32.04-.13.06-.26.06-.4v-.52c0-.11-.02-.22-.07-.32-.04-.1-.1-.19-.16-.26-.07-.07-.17-.14-.29-.19-.12-.06-.29-.08-.49-.08h-.56v2.4ZM11.27,7.44h.54s.1,0,.17-.01c.06,0,.13-.02.21-.05s.15-.06.23-.11.15-.12.21-.2c.05-.07.09-.15.12-.23.03-.08.05-.17.07-.25.01-.08.02-.15.02-.22s0-.12,0-.15v-.4c0-.21-.02-.39-.06-.53s-.13-.28-.26-.39c-.1-.08-.19-.14-.29-.17-.1-.03-.21-.05-.35-.05h-.61v2.76Z"/>
      <path class="cls-1" d="M17.81,8.52l-.4-1.8h-1.54l-.4,1.8h-1.2L16.12.12h1.06l1.84,8.4h-1.2ZM16.62,2.46l-.62,3.19h1.27l-.65-3.19Z"/>
      <path class="cls-1" d="M20.81.12l2,5.28V.12h1.2v8.4h-1.2l-2-5.28v5.28h-1.2V.12h1.2Z"/>
    </g>
    <g>
      <path class="cls-1" d="M27.11.12h1.62c.09,0,.2,0,.32.01.13,0,.26.03.41.05.14.03.29.07.44.12.15.05.29.13.41.22.17.11.3.24.4.4.1.15.18.31.23.46.05.16.09.31.11.45.02.14.03.27.03.37v.25c0,.28-.02.52-.06.73s-.14.4-.3.58c-.08.1-.16.17-.24.23s-.15.11-.22.15c.16.07.28.16.37.25.08.1.15.19.21.28.06.1.11.2.14.28.03.08.05.17.07.25.01.08.02.16.02.25,0,.08,0,.18,0,.28v.64c0,.09,0,.2-.01.35,0,.14-.03.3-.08.46-.04.16-.11.32-.21.49-.1.17-.24.32-.42.46-.14.1-.32.2-.55.28-.23.08-.52.12-.88.12h-1.82V.12ZM28.31,3.6h.58c.21,0,.37-.03.49-.1.12-.07.21-.14.28-.21.07-.09.13-.2.17-.32.04-.13.06-.26.06-.4v-.52c0-.11-.02-.22-.07-.32-.04-.1-.1-.19-.16-.26-.07-.07-.17-.14-.29-.19-.12-.06-.29-.08-.49-.08h-.56v2.4ZM28.31,7.44h.54s.1,0,.17-.01c.06,0,.13-.02.21-.05s.15-.06.23-.11.15-.12.21-.2c.05-.07.09-.15.12-.23.03-.08.05-.17.07-.25.01-.08.02-.15.02-.22s0-.12,0-.15v-.4c0-.21-.02-.39-.06-.53s-.13-.28-.26-.39c-.1-.08-.19-.14-.29-.17-.1-.03-.21-.05-.35-.05h-.61v2.76Z"/>
      <path class="cls-1" d="M33.36.12v7.26h2.54v1.14h-3.74V.12h1.2Z"/>
      <path class="cls-1" d="M37.95.12v6.37c0,.29.07.52.2.7.14.18.34.27.6.27s.46-.09.6-.27c.14-.18.2-.41.2-.7V.12h1.2v6.19c0,.46-.06.85-.19,1.15s-.28.54-.48.71c-.2.18-.41.3-.65.37-.24.07-.47.1-.69.1s-.45-.03-.69-.1c-.24-.07-.45-.19-.65-.37-.2-.18-.36-.41-.48-.71s-.19-.68-.19-1.15V.12h1.2Z"/>
      <path class="cls-1" d="M41.72.12h3.56v1.14h-2.36v2.47h2.09v1.08h-2.09v2.57h2.4v1.14h-3.6V.12Z"/>
      <path class="cls-1" d="M48.99,2.22c0-.09-.01-.21-.03-.36-.02-.15-.08-.29-.17-.41-.06-.06-.13-.13-.23-.19-.1-.06-.23-.09-.41-.09-.09,0-.18.01-.29.04-.1.03-.2.09-.3.19-.11.12-.18.26-.21.41-.03.16-.04.3-.04.44,0,.11.01.26.04.44.02.18.08.33.16.44.06.1.15.18.26.23.11.05.21.1.29.14l.73.26c.18.06.37.15.56.25s.37.26.53.47c.16.22.26.46.3.7.04.24.06.49.06.76v.29c0,.43-.05.8-.16,1.12s-.24.56-.42.74c-.16.16-.37.29-.64.4-.26.1-.57.16-.92.16-.43,0-.79-.07-1.06-.22s-.48-.32-.62-.51c-.1-.13-.17-.27-.22-.43-.05-.16-.09-.3-.11-.44-.02-.14-.04-.26-.04-.36s0-.17,0-.19v-.28h1.2v.23c0,.1,0,.22.03.36s.07.27.16.38c.1.13.22.21.35.23.13.03.23.04.31.04.23,0,.4-.03.52-.1.11-.07.19-.13.24-.2.09-.11.14-.25.16-.4.02-.16.03-.3.03-.43v-.31c0-.14-.01-.3-.04-.46-.02-.16-.08-.3-.16-.41-.08-.11-.18-.2-.3-.25-.12-.06-.21-.1-.28-.12l-.88-.31c-.22-.08-.42-.19-.62-.32-.2-.13-.36-.34-.48-.62-.09-.19-.14-.39-.16-.6-.02-.21-.02-.42-.02-.62v-.24c0-.35.06-.66.18-.92.12-.26.27-.47.44-.64.2-.19.42-.33.67-.4.24-.08.51-.11.79-.11.3,0,.58.05.82.14.24.1.45.24.63.42.18.18.31.41.41.68.1.27.14.58.14.93v.28h-1.2v-.23Z"/>
    </g>
  </g>
</svg>