<svg width="46" height="46" viewBox="0 0 46 46" fill="none" xmlns="http://www.w3.org/2000/svg">
<path d="M0.2 0.2H44.9928V44.9928H0.2V0.2Z" stroke="#F8F8F8" stroke-width="0.4"/>
<path d="M26.6169 16.8436L26.4755 16.7022L26.334 16.8436L9.27375 33.9039L9.21517 33.9625V34.0453V35.7777V35.9777H9.41517H11.1476H11.2304L11.289 35.9191L28.3493 18.8588L28.4907 18.7174L28.3493 18.576L26.6169 16.8436ZM38.8562 13.1152L35.5517 16.4197L28.7731 9.6412L32.0777 6.33667C32.3966 6.01778 32.8347 5.84917 33.2544 5.84917C33.6956 5.84917 34.114 6.00073 34.4499 6.33667L38.8562 10.743C39.5125 11.3992 39.5125 12.4589 38.8562 13.1152ZM26.4755 11.9389L33.254 18.7174L12.6276 39.3438H5.84911V32.5652L26.4755 11.9389Z" fill="#333333" stroke="#F8F8F8" stroke-width="0.4"/>
</svg>
