<svg width="189" height="65" viewBox="0 0 189 65" fill="none" xmlns="http://www.w3.org/2000/svg">
<path d="M19.006 21.44L14.742 35.064H10.842L6.552 21.44L6.11 36H1.872L2.912 16.032H8.814L12.948 29.422L16.926 16.032H23.036L24.076 36H19.578L19.006 21.44ZM26.468 25.964V25.938C26.468 21.31 28.522 15.564 36.062 15.564C43.602 15.564 45.656 21.31 45.656 25.964C45.656 30.696 43.602 36.546 36.062 36.546C28.522 36.546 26.468 30.696 26.468 25.964ZM31.226 25.886V25.912C31.226 30.852 33.254 32.568 36.062 32.568C38.87 32.568 40.898 30.852 40.898 25.886C40.898 21.024 38.87 19.464 36.062 19.464C33.254 19.464 31.226 21.024 31.226 25.886ZM59.7354 36C59.2674 34.648 58.2534 32.204 57.5774 30.8C56.6414 28.85 56.0174 28.408 54.7434 28.408H52.7414V36H48.5294V16.032H53.6254C58.4614 16.032 62.3354 16.838 62.3354 21.726C62.3354 24.352 61.1394 25.912 59.1894 26.588C60.1514 27.082 60.7494 27.836 60.9834 28.278C61.7634 29.734 63.5574 33.738 64.4934 36H59.7354ZM55.7574 24.872C57.2394 24.716 57.9674 23.65 57.9674 22.22C57.9674 20.088 56.2254 19.776 54.0934 19.776H52.7414V24.872H55.7574ZM70.421 16.032V36H65.949V16.032H70.421ZM89.1912 25.938L97.0172 36H91.0892L84.6412 26.536V36H80.1692V16.032H84.6412V25.912L90.8552 16.032H96.3672L89.1912 25.938ZM95.6774 36L103.321 16.032H107.429L115.073 36H110.159L108.599 31.606H101.683L100.175 36H95.6774ZM102.775 28.174H107.637L105.219 20.894L102.775 28.174ZM124.568 19.932H116.326V16.032H129.82V19.646L120.772 32.1H129.846V36H115.52V32.282L124.568 19.932ZM141.069 36.442H141.043C136.935 36.442 132.827 34.57 132.827 29.448V16.032H137.299V27.888C137.299 30.826 138.053 32.62 141.121 32.62C144.189 32.62 144.943 30.826 144.943 27.888V16.032H149.415V29.448C149.415 34.57 145.307 36.442 141.069 36.442ZM157.96 27.706L150.68 16.032H156.01L160.404 24.144L164.642 16.032H169.816L162.432 27.706V36H157.96V27.706ZM168.857 36L176.501 16.032H180.609L188.253 36H183.339L181.779 31.606H174.863L173.355 36H168.857ZM175.955 28.174H180.817L178.399 20.894L175.955 28.174Z" fill="#333333"/>
<path d="M12.192 52.626L13.508 45.248H15.972L13.368 56H11.086L9.168 49.042L7.292 56H5.01L2.21 45.248H4.772L6.312 52.626L8.062 45.5H10.344L12.192 52.626ZM19.8181 47.32V49.546H23.0661V51.534H19.8181V53.928H23.8221V56H17.4661V45.248H23.5701V47.32H19.8181ZM33.3513 52.864V52.878C33.3513 55.37 31.3913 56 29.3893 56H25.8333V45.248H29.2353C31.0273 45.248 32.9313 45.696 32.9313 48.006C32.9313 49.154 32.3013 49.91 31.5312 50.232C32.1613 50.372 33.3513 50.988 33.3513 52.864ZM30.6493 48.426V48.412C30.6493 47.446 30.0053 47.166 28.9133 47.166H28.1573V49.588H29.5433C30.2013 49.518 30.6493 49.112 30.6493 48.426ZM28.1573 51.338V54.012H29.2633C30.2293 54.012 30.9153 53.76 30.9153 52.626C30.9153 51.856 30.4533 51.338 29.0533 51.338H28.1573ZM39.2727 45.248H42.6327C46.3147 45.248 48.1627 46.844 48.1627 50.596C48.1627 53.648 47.0007 56 42.5067 56H39.2727V45.248ZM45.6427 50.596V50.582C45.6427 48.636 44.9707 47.32 42.6187 47.32H41.6527V53.928H42.6187C44.8307 53.928 45.6427 52.612 45.6427 50.596ZM52.6306 47.32V49.546H55.8786V51.534H52.6306V53.928H56.6346V56H50.2786V45.248H56.3826V47.32H52.6306ZM64.6938 45.598L64.0498 47.67C63.3638 47.348 62.5938 47.152 62.0058 47.152C61.4318 47.152 60.6198 47.264 60.6198 48.16C60.6198 48.706 61.2918 49.042 62.1178 49.448C63.6018 50.176 65.0158 50.904 65.0158 52.878C65.0158 55.454 63.2658 56.182 61.4738 56.182C60.1998 56.182 58.7018 55.874 58.0158 55.552L58.6178 53.368C59.3738 53.746 60.4938 54.068 61.3478 54.068C61.8938 54.068 62.5798 53.858 62.5798 53.032C62.5798 52.416 62.0898 51.996 60.7598 51.408C59.2758 50.75 58.2398 50.12 58.2398 48.3C58.2398 45.64 60.4238 45.094 61.7398 45.094C62.9718 45.094 64.0218 45.318 64.6938 45.598ZM69.4213 45.248V56H67.0133V45.248H69.4213ZM78.0228 54.04V51.758H76.3428V49.77H80.2488V55.706C79.4648 55.972 78.3168 56.182 77.1268 56.182C72.6748 56.182 71.5548 53.522 71.5548 50.75C71.5548 47.908 72.6188 45.052 77.0988 45.052C77.9248 45.052 78.8628 45.178 79.4508 45.304L79.0588 47.46C78.5268 47.278 77.8268 47.166 77.1548 47.166C75.1948 47.166 74.1308 48.286 74.1308 50.778C74.1308 53.116 75.1388 54.11 77.2108 54.11C77.4488 54.11 77.7568 54.096 78.0228 54.04ZM84.6175 47.936V56H82.3775V45.248H85.5835L89.1115 52.36V45.248H91.3655V56H88.6075L84.6175 47.936ZM96.2028 47.32V49.546H99.4508V51.534H96.2028V53.928H100.207V56H93.8508V45.248H99.9548V47.32H96.2028ZM108.252 56C108 55.272 107.454 53.956 107.09 53.2C106.586 52.15 106.25 51.912 105.564 51.912H104.486V56H102.218V45.248H104.962C107.566 45.248 109.652 45.682 109.652 48.314C109.652 49.728 109.008 50.568 107.958 50.932C108.476 51.198 108.798 51.604 108.924 51.842C109.344 52.626 110.31 54.782 110.814 56H108.252ZM106.11 50.008C106.908 49.924 107.3 49.35 107.3 48.58C107.3 47.432 106.362 47.264 105.214 47.264H104.486V50.008H106.11Z" fill="#333333"/>
</svg>
