<svg width="46" height="46" viewBox="0 0 46 46" fill="none" xmlns="http://www.w3.org/2000/svg">
<path d="M37.8607 13.1813V12.9813H37.6607H7.53218H7.33218V13.1813V32.0117V32.2117H7.53218H37.6607H37.8607V32.0117V13.1813ZM3.98494 13.1815V13.1813C3.98494 11.2192 5.5726 9.61528 7.53218 9.61528H37.6607C39.6216 9.61528 41.2268 11.2205 41.2268 13.1813V32.0117C41.2268 33.9726 39.6216 35.5777 37.6607 35.5777H7.53218C5.5713 35.5777 3.96611 33.9726 3.96611 32.0117L3.98494 13.1815ZM20.9134 15.2644H24.2795V18.6304H20.9134V15.2644ZM20.9134 20.9135H24.2795V24.2795H20.9134V20.9135ZM15.2643 15.2644H18.6304V18.6304H15.2643V15.2644ZM15.2643 20.9135H18.6304V24.2795H15.2643V20.9135ZM9.61521 20.9135H12.9813V24.2795H9.61521V20.9135ZM9.61521 15.2644H12.9813V18.6304H9.61521V15.2644ZM15.2643 26.5626H29.9286V29.9286H15.2643V26.5626ZM26.5625 20.9135H29.9286V24.2795H26.5625V20.9135ZM26.5625 15.2644H29.9286V18.6304H26.5625V15.2644ZM32.2116 20.9135H35.5777V24.2795H32.2116V20.9135ZM32.2116 15.2644H35.5777V18.6304H32.2116V15.2644Z" fill="#333333" stroke="#F8F8F8" stroke-width="0.4"/>
</svg>
