<svg width="46" height="46" viewBox="0 0 46 46" fill="none" xmlns="http://www.w3.org/2000/svg">
<path d="M0.2 0.2H44.9928V44.9928H0.2V0.2Z" stroke="#F8F8F8" stroke-width="0.4"/>
<path d="M33.8946 17.1471H34.0973L34.0945 16.9444C34.0179 11.3103 29.8979 6.6537 24.5124 5.75293L24.2794 5.71396V5.95019V16.9471V17.1471H24.4794H33.8946ZM20.9133 5.95019V5.71396L20.6803 5.75293C15.2949 6.6537 11.1748 11.3103 11.0982 16.9444L11.0954 17.1471H11.2982H20.7133H20.9133V16.9471V5.95019ZM11.2982 20.5132H11.0982V20.7132V28.2453C11.0982 34.5886 16.2531 39.7435 22.5964 39.7435C28.9397 39.7435 34.0946 34.5886 34.0946 28.2453V20.7132V20.5132H33.8946H11.2982ZM22.5964 2.21465C30.7714 2.21465 37.3857 8.79134 37.4606 16.9479V28.2453C37.4606 36.4578 30.8089 43.1096 22.5964 43.1096C14.3838 43.1096 7.7321 36.4578 7.7321 28.2453V16.948C7.80691 8.79142 14.4213 2.21465 22.5964 2.21465Z" fill="#333333" stroke="#F8F8F8" stroke-width="0.4"/>
</svg>
